<?xml version="1.0" encoding="UTF-8"?><svg version="1.1" xmlns="http://www.w3.org/2000/svg" xmlns:xlink="http://www.w3.org/1999/xlink" viewBox="0 0 1600 1200" width="1600" height="1200" x="0px" y="0px">
              
              <!-- ITEM 0 -->
<g transform="translate(742.0 326.0) rotate(0.0 215.5 364.5) scale(1.5789859320046895 1.5759674689184195)">
<g transform="translate(-0.0 -0.0)">
<g clip-path="url(#clipPathId-collage-item-0)">
		<defs>
			<clipPath id="clipPathId-collage-item-0">
				<rect x="0.0" y="0.0" width="272.96" height="462.573"/>
			</clipPath>
		</defs>

<g id="Egg_on_a_Stand-i0">
	<path style="fill:#FFE7E6;" d="M233.279,135.101c0,0-8.22-96.93-57.22-126.75l-9.98-4.89c-3-1.13-6.13-2.03-9.4-2.66   c-88.5-11.94-131.62,113.21-138.4,139.1c0,0-12.49,31.3-10.9,83.3c1.199,39.075,14.16,64.577,33.967,80.439   c17.359,13.901,4.736-8.84,29.304-7.098c15.14,1.08,57.001-7.143,72.851-10.043c36.64-6.69,65.191,3.234,72.688-10.399   c9.131-16.605,17.87-37.28,19.59-70.2C237.38,182.011,233.279,135.101,233.279,135.101z M48.103,226.306   c-9.166,0-16.596-7.43-16.596-16.596s7.43-16.596,16.596-16.596c9.166,0,16.596,7.43,16.596,16.596S57.269,226.306,48.103,226.306z    M82.001,193.114c-5.264,0-9.531-4.267-9.531-9.531s4.267-9.531,9.531-9.531s9.531,4.267,9.531,9.531   S87.265,193.114,82.001,193.114z M107.491,31.874C87.956,64.684,71.637,98.76,62.25,135.939   c-1.822,7.216-3.727,14.354-5.138,21.665c-1.19,6.163-0.888,14.609-5.673,19.103c-3.718,3.491-9.75,2.878-12.417-1.6   c-3.727-6.255-0.479-15.476,0.886-22.246c1.285-6.37,2.79-12.695,4.513-18.96c9.426-34.291,28.06-69.02,52.463-95.075   c2.748-2.935,5.937-5.529,8.89-8.277C106.672,29.713,108.138,30.786,107.491,31.874z"/>
	<g>
		<g>
			<path style="fill:#FF564F;" d="M198.193,417.175l15.6-9.5c-7.3-6.2-13.8-22.5-13.8-22.5l-11.3,0.4L198.193,417.175z"/>
			<polygon style="fill:#FF564F;" points="74.693,419.475 99.393,423.375 102.593,388.375 82.293,389.075 84.693,389.875    "/>
			<polygon style="fill:#FF564F;" points="183.493,385.775 106.893,388.275 107.693,388.375 104.393,424.175 105.993,424.375      133.593,423.775 130.593,388.375 135.593,387.875 138.693,423.675 166.093,423.075 158.193,388.675 163.193,387.475      171.193,422.975 189.393,422.575 193.693,419.975    "/>
			<path style="fill:#FF564F;" d="M79.493,389.175l-21.8,0.7c-3.6,16.7-9.4,25.4-9.4,25.4l21.3,3.3L79.493,389.175z"/>
		</g>
		<path style="fill:#FF9B19;" d="M259.397,239.477c0,0-5.59,7.43-34.63,18.66c-19.3,7.46-48.98,16.59-94.27,26.34    c-46.71,10.05-76.28,13.5-94.86,14.13c-25.6,0.87-30.34-3.63-30.34-3.63s-3.42-4.77,16.74-13.75c0.42,0.71,0.84,1.41,1.28,2.1    c2.83,4.55,6.01,8.67,9.48,12.39c18.14-1.32,48.2-4.85,93.1-13.94c46.81-9.41,79.5-19.32,100.21-27.06    c2.09-5.55,3.97-11.6,5.52-18.32c0.03-0.1,0.06-0.21,0.08-0.32C258.977,234.556,259.397,239.477,259.397,239.477z"/>
		<path style="fill:#2568EF;" d="M82.293,341.075c0,0,44.3,5.1,85.7-6.5c0,0-9.4,11.6-9,25.4c0,0-39.2,0.3-74,4.4    C84.793,364.275,89.793,351.975,82.293,341.075z"/>
		<path style="fill:#334A5A;" d="M36.793,434.675c0,0-28.3,3.6-4.4,14.5s58.1,12.3,76.9,13.1s58.6,0.2,95.1-4.4    c27.5-3.4,53.3-10.9,60.6-13.5c7.3-2.6,13.5-9,0-12.3c-15.4-3.7-51.4-3.8-51.4-3.8L36.793,434.675z"/>
		<path style="fill:#2568EF;" d="M39.193,409.475c0,0,31.9,13.8,93.3,10.9c61.3-2.9,86.4-18.6,86.4-18.6l10.9,22.8    c0,0,2.2,2.6,0,4.4s-36.3,25-99.8,25s-98.7-17.4-98.7-17.4s-1.5-2.2,0-6.2C32.693,426.575,39.193,409.475,39.193,409.475z"/>
		<g>
			<path style="fill:#2568EF;" d="M206.093,372.775l-3-6.3c0,0-12.7-3.2-64.2-1.8c-47.2,1.3-86.8,8.7-86.8,8.7l-2.7,6.9     C74.493,378.675,144.793,374.575,206.093,372.775z"/>
			<path style="fill:#2568EF;" d="M47.293,385.375l-1.3,3.1c0,0,12.3,10.5,78.7,9.4c66.5-1.1,86.8-13.8,86.8-13.8l-3.1-6.5     C144.593,379.575,70.193,384.075,47.293,385.375z"/>
		</g>
		<g>
			<path style="fill:#2568EF;" d="M236.493,285.075c-0.3,0.5-0.7,1-1,1.7c-2.4,3.9-6.2,9.8-15.3,9.8c-2.8,0-6.3-0.6-10.3-1.9     c-14.3-4.9-22.1,2.6-27.7,8.1l-0.6,0.6c-1.6,1.5-7.7,6.9-15.9,9.6c-8.1,2.7-15.5,1.8-21.4-2.7c-15.7-11.9-22.8-4.7-26.7-0.7     c-0.5,0.5-1,1-1.5,1.5c-3.1,3.3-7.3,7.8-12.7,10c-2.2,0.9-4.4,1.4-6.6,1.4c-4.6,0-9.1-2-13.5-6c-5.6-5.2-10.8-7.8-15.2-7.6     c-3.5,0.2-5.2,1.9-5.2,1.9l-0.1,0.2c-0.4,0.4-10.2,9.8-20.7,9.4c-4.6-0.2-8.5-2-11.9-5.6c-4-4.4-9.2-6-15.4-4.9     c-2.4,0.5-4.5,1.2-6,1.9l4.6,9.6c0,0,56.3,24,125.6,15.2c69.3-8.7,114.7-38.9,114.7-38.9l3.6-22.3     C246.693,274.075,241.193,278.275,236.493,285.075z"/>
			<path style="fill:#2568EF;" d="M255.897,231.677c-0.94-0.07-1.94-0.14-2.96-0.2c-6.72-0.39-13.45-0.53-20.17-0.4     c-0.33,1.71-0.68,3.37-1.06,5c-0.02,0.11-0.05,0.22-0.08,0.32c0.29,0,0.58,0.01,0.87,0.01l18.59,0.36     c0.34,0.01,0.68,0.03,1.01,0.08c1.73,0.26,6.21,1.32,1.6,5.03c-2.66,2.14-11.53,6.83-27.59,12.84     c-20.71,7.74-53.4,17.65-100.21,27.06c-44.9,9.09-74.96,12.62-93.1,13.94c-11.96,0.87-18.74,0.78-21.17,0.7     c-0.82-0.02-1.63-0.17-2.41-0.44c-2.38-0.84-6.34-3.04,1.38-6.9c3.97-1.98,8.16-3.88,12.72-5.75c-0.44-0.69-0.86-1.39-1.28-2.1     c-0.4-0.69-0.8-1.38-1.18-2.09c-4.39,1.89-10.21,4.46-14.56,6.64c-8,4-6.1,7.3-6.1,7.3l2.39,5.93c0.07,0.18,0.15,0.35,0.23,0.53     l3.28,6.74c1.9-0.8,4.5-1.8,7.5-2.4c8.1-1.5,15.3,0.8,20.7,6.7c2.3,2.4,4.8,3.6,7.7,3.8c3.55,0.11,7.3-1.44,10.39-3.25     c2.75-1.61,4.98-3.42,6.11-4.45c0.6-0.6,3.7-3.5,9.2-3.8c6-0.2,12.6,2.8,19.4,9.1c9.8,9.1,17.3,2.8,24.6-5.1     c0.6-0.6,1-1.1,1.5-1.6c2.9-2.9,6.9-6.5,12.7-7.3c6.5-1,13.6,1.5,21.6,7.5c10.5,8,25-2,29.8-6.5l0.6-0.6     c5.64-5.36,14.81-14.25,30.51-10.31c1,0.25,2.03,0.55,3.09,0.91c12.7,4.4,15.6-0.4,18.8-5.4c0.4-0.6,0.8-1.3,1.2-1.9     c6.8-9.8,14.8-13.7,26.4-12.3l4.83-29.6c0.04-0.24,0.09-0.47,0.16-0.7C263.237,237.746,264.117,232.376,255.897,231.677z"/>
		</g>
	</g>
</g>

</g>
</g>
</g>

<!-- ITEM 1 -->
<g transform="translate(197.0 174.0) rotate(35.180084579812124 195.0 385.0) scale(1.3892649007566151 1.3885282322051993)">
<g transform="translate(-0.0 -0.0)">
<g clip-path="url(#clipPathId-collage-item-1)">
		<defs>
			<clipPath id="clipPathId-collage-item-1">
				<rect x="0.0" y="0.0" width="280.724" height="554.544"/>
			</clipPath>
		</defs>

<g id="Royal_Rod_with_Decorative_Objects-i1">
	<circle style="fill:#FF9B19;" cx="223.243" cy="189.902" r="9.5"/>
	<circle style="fill:#FF9B19;" cx="206.181" cy="226.96" r="4"/>
	<circle style="fill:#FF9B19;" cx="117.593" cy="190.292" r="5.5"/>
	<circle style="fill:#FF9B19;" cx="71.841" cy="160.238" r="8.5"/>
	<circle style="fill:#FF9B19;" cx="115.713" cy="90.251" r="6.8"/>
	<circle style="fill:#FF9B19;" cx="83.37" cy="78.365" r="4.8"/>
	
		<ellipse transform="matrix(0.2899 -0.9571 0.9571 0.2899 -149.632 235.3247)" style="fill:#FF9B19;" cx="83.765" cy="218.496" rx="4.8" ry="4.8"/>
	<circle style="fill:#FF9B19;" cx="196.055" cy="76.135" r="4"/>
	<circle style="fill:#FF9B19;" cx="233.544" cy="116.224" r="5"/>
	<g>
		<path style="fill:#FF9B19;" d="M88.339,270.662c-0.824-0.04-1.685-0.301-2.393-0.725c-2.027-1.241-2.509-3.79-1.106-5.664    l32.038-42.644c1.403-1.874,4.071-3.782,6.003-2.57c2.027,1.241,0.929,3.834-0.446,5.612l-30.509,44.152    C91.137,270.047,89.699,270.656,88.339,270.662z"/>
	</g>
	<g>
		<path style="fill:#FF9B19;" d="M265.065,243.14c-0.034,0.635-0.238,1.299-0.566,1.844c-0.964,1.561-2.932,1.925-4.374,0.836    l-32.81-24.85c-1.442-1.089-2.906-3.153-1.965-4.64c0.964-1.561,2.961-0.705,4.329,0.361l33.978,23.675    C264.598,240.979,265.064,242.09,265.065,243.14z"/>
	</g>
	<g>
		<path style="fill:#FF9B19;" d="M11.014,219.97c-0.682-2.923,0.304-6.177,3.056-7.329l70.112-28.29    c2.656-1.181,6.581,3.456,2.321,6.136l-67.457,35.05C18.172,226.004,12.282,225.787,11.014,219.97z"/>
	</g>
	<g>
		<path style="fill:#FF9B19;" d="M3.879,100.366c-3.071-1.244-4.652-4.648-3.504-7.749c1.177-3.196,4.677-4.748,7.778-3.6    l84.718,33.184c3.1,1.148,5.606,2.534,4.429,5.73c-1.177,3.196-3.848,2.7-6.948,1.552L3.975,100.395    C3.879,100.366,3.879,100.366,3.879,100.366z"/>
	</g>
	<g>
		<path style="fill:#FF9B19;" d="M104.477,54.561L81.88,15.326c-1.401-2.619-0.386-5.968,2.261-7.465    c2.619-1.401,5.968-0.386,7.465,2.261l20.103,40.57c1.401,2.619,2.33,6.452-0.347,8.045    C108.311,60.529,105.211,55.933,104.477,54.561z"/>
	</g>
	<g>
		<path style="fill:#FF9B19;" d="M202.809,53.836c-0.795-0.136-1.656-0.397-2.364-0.82c-2.544-1.606-1.242-4.869,0.364-7.413    l17.513-30.221c1.702-2.515,5.066-3.272,7.581-1.57c2.544,1.606,3.272,5.066,1.57,7.581l-19.346,27.994    C207.069,51.155,204.84,54.033,202.809,53.836z"/>
	</g>
	<g>
		<path style="fill:#FF9B19;" d="M223.446,95.403c-2.332-1.96-1.396-4.707,4.593-8.953l31.62-18.843    c2.648-1.497,5.997-0.482,7.494,2.165c1.497,2.648,0.482,5.997-2.165,7.494l-31.136,16.9    C232.575,94.929,226.427,97.978,223.446,95.403z"/>
	</g>
	<g>
		<path style="fill:#FF9B19;" d="M238.145,151.053c-5.554-0.637-8.509-2.264-8.33-4.926c0.2-3.074,6.687-4.139,9.665-3.969    l36.106,1.533c3.074,0.2,5.299,2.859,5.128,5.837c-0.2,3.074-2.859,5.299-5.837,5.128    C274.848,154.752,238.527,151.169,238.145,151.053z"/>
	</g>
	<g>
		<g>
			<path style="fill:#2568EF;" d="M171.449,223.949l-11.954,0.141l4.127,300.291l14.448-1.475L171.449,223.949z"/>
		</g>
		<path style="fill:#FF9B19;" d="M184.898,190.93c-0.112,6.235-10.207,12.999-21.758,12.844    c-11.647-0.184-20.354-7.314-20.241-13.55c0.112-6.235,9.627-11.085,21.178-10.93C175.724,179.479,185.011,184.695,184.898,190.93    z"/>
		<path style="fill:#FF564F;" d="M178.004,89.162c-1.951,2.648-5.46,3.884-8.714,2.898c-4.211-1.276-6.613-5.765-5.337-9.976    c0.551-1.818,1.618-3.271,3.047-4.197c-0.383-0.116-0.737-0.328-1.119-0.444c-9.762-2.957-20.112,2.581-23.069,12.343    c-2.957,9.762,2.581,20.112,12.343,23.069c9.762,2.957,20.112-2.581,23.069-12.343C179.382,96.684,179.211,92.766,178.004,89.162z    "/>
		<circle style="fill:#FF9B19;" cx="164.146" cy="9.002" r="9"/>
		<path style="fill:#FF9B19;" d="M150.888,204.556c0,0,4.206,3.364,13.689,3.101c9.483-0.262,13.514-3.221,13.514-3.221    l0.668,11.591c-0.029,0.096,0.067,0.125,0.038,0.22c-0.032,1.14-0.822,10.304-12.643,10.694    c-12.644,0.35-15.313-4.638-16.068-9.046C149.332,213.488,150.888,204.556,150.888,204.556z"/>
		<path style="fill:#FF9B19;" d="M193.721,129.03c-0.691-3.239-1.764-6.595-8.272-8.566c-8.805-2.667-13.908,7.281-13.324,11.219    c-2.064-12.85-8.572-14.821-12.643-14.487c-5.365,0.465-10.503,5.7-10.645,12.031c-2.494-2.114-5.752-5.504-9.351-6.385    c-4.777-1.133-8.228-0.089-10.634,4.407c-4.813,8.991,6.228,31.874,21.011,48.263c0.392,0.432,0.841,0.673,1.32,0.818    c0.67,0.203,1.302,0.185,1.992-0.023c0,0,5.666-2.15,13.404-1.478c2.949,0.266,5.783,0.916,8.5,1.948    c1.407,0.531,2.941-0.05,3.634-1.303C180.676,172.098,196.977,143.808,193.721,129.03z M154.289,131.923    c1.476-3.837,3.581-6.647,5.19-6.787c0.537-0.046,2.442,0.217,5.493,5.321c6.341,10.802,2.762,34.69,1.968,38.002    c-0.029,0.096-0.087,0.287-0.02,0.412c-1.743-0.11-3.39-0.191-4.875-0.118C156.659,155.837,151.164,140.171,154.289,131.923z     M153.067,170.109c-13.76-15.975-18.26-34.578-15.3-38.488c0.519-0.679,0.96-0.754,1.401-0.83c2.337-0.128,6.189,3.024,8.118,5.28    c0.096,0.029,0.067,0.125,0.162,0.154c-0.327,7.633,2.337,18.157,8.322,33.24C154.668,169.653,153.758,169.9,153.067,170.109z     M174.714,170.396c-0.67-0.203-1.244-0.377-1.943-0.484c0.281-1.273,1.4-7.726,1.785-15.55c0.087-0.287,0.174-0.574,0.165-0.89    c0.069-7.816,1.81-21.498,6.148-24.782c0.806-0.592,1.467-0.705,2.549-0.482c1.465,0.339,2.468,1.166,2.982,2.575    C189.483,138.195,181.24,158.163,174.714,170.396z"/>
		
			<ellipse transform="matrix(0.0074 -1 1 0.0074 -364.2387 701.1416)" style="fill:#324A58;" cx="171.057" cy="534.044" rx="20.5" ry="22.8"/>
		<path style="fill:#324A58;" d="M160.195,72.065c0,0,16.381-36.833-1.629-36.019S160.195,72.065,160.195,72.065z"/>
	</g>
</g>

</g>
</g>
</g>

<!-- ITEM 2 -->
<g transform="translate(850.0 141.0) rotate(270.0 328.5 300.0) scale(2.0427198955321333 2.0475020475020473)">
<g transform="translate(-0.0 -0.0)">
<g clip-path="url(#clipPathId-collage-item-2)">
		<defs>
			<clipPath id="clipPathId-collage-item-2">
				<rect x="0.0" y="0.0" width="321.63" height="293.04"/>
			</clipPath>
		</defs>
<title>kingdom_free_разбор</title><g id="Мыло-i2"><path d="M290.34,130.37c1.7,0,3,22,3,22a3,3,0,0,1-6,0s1.3-22,3-22" style="fill:#ff9719;"/><path d="M259.34,159.37c0-1.7,24-3,24-3a3,3,0,0,1,0,6s-24-1.3-24-3" style="fill:#ff9719;"/><path d="M287.34,167.37a3,3,0,0,1,6,0s-1.3,20-3,20S287.34,167.37,287.34,167.37Z" style="fill:#ff9719;"/><path d="M318.34,159.37c0,1.7-22,3-22,3a3,3,0,0,1,0-6s22,1.3,22,3" style="fill:#ff9719;"/><path d="M56.34,222.37c1.7,0,3,22,3,22a3,3,0,0,1-6,0s1.3-22,3-22" style="fill:#ff9719;"/><path d="M25.34,251.37c0-1.7,24-3,24-3a3,3,0,1,1,0,6s-24-1.3-24-3" style="fill:#ff9719;"/><path d="M53.34,259.37a3,3,0,0,1,6,0s-1.3,20-3,20S53.34,259.37,53.34,259.37Z" style="fill:#ff9719;"/><path d="M84.34,251.37c0,1.7-22,3-22,3a3,3,0,0,1,0-6s22,1.3,22,3" style="fill:#ff9719;"/><path d="M251.84,130.87a16,16,0,1,1,16-16A16,16,0,0,1,251.84,130.87Zm0-28a12,12,0,1,0,12,12A12,12,0,0,0,251.84,102.87Z" style="fill:#ff9719;"/><path d="M24.5,222A24.5,24.5,0,1,1,49,197.52,24.53,24.53,0,0,1,24.5,222Zm0-45A20.5,20.5,0,1,0,45,197.52,20.52,20.52,0,0,0,24.5,177Z" style="fill:#ff9719;"/><path d="M89.84,216.87a11,11,0,1,1,11-11A11,11,0,0,1,89.84,216.87Zm0-18a7,7,0,1,0,7,7A7,7,0,0,0,89.84,198.87Z" style="fill:#ff9719;"/><path d="M298.63,46a23,23,0,1,1,23-23A23,23,0,0,1,298.63,46Zm0-42a19,19,0,1,0,19,19A19,19,0,0,0,298.63,4Z" style="fill:#ff9719;"/><path d="M218.34,235.37c1.7,0,3,22,3,22a3,3,0,0,1-6,0s1.3-22,3-22" style="fill:#ff9719;"/><path d="M187.34,264.37c0-1.7,24-3,24-3a3,3,0,1,1,0,6s-24-1.3-24-3" style="fill:#ff9719;"/><path d="M215.34,272.37a3,3,0,0,1,6,0s-1.3,20-3,20S215.34,272.37,215.34,272.37Z" style="fill:#ff9719;"/><path d="M246.34,264.37c0,1.7-22,3-22,3a3,3,0,0,1,0-6s22,1.3,22,3" style="fill:#ff9719;"/></g>
</g>
</g>
</g>

<!-- ITEM 3 -->
<g transform="translate(816.0 455.0) rotate(0.0 120.0 134.5) scale(2.692273175984923 2.697931919844342)">
<g transform="translate(-0.0 -0.0)">
<g clip-path="url(#clipPathId-collage-item-3)">
		<defs>
			<clipPath id="clipPathId-collage-item-3">
				<rect x="0.0" y="0.0" width="89.144" height="99.706"/>
			</clipPath>
		</defs>

<g id="_x34_04_error-i3">
	<path style="fill:#2568ef;" d="M32.19,95.906c-5.8-26.7-2.9-65.2-2.9-65.5c0.2-1.6-1-3.1-2.7-3.3c-1.6-0.2-3.1,1-3.3,2.7   c-0.1,0.6,1.3,33.5-12.8,40c-0.8,0.4-1.1,0.2-1.2,0.1c-3-2.3-3.3-16.8-1.8-28.9c0.2-1.6-1-3.1-2.6-3.3s-3.1,1-3.3,2.6   c-0.8,6.7-4.5,30.8,3.2,35.5c6.1,3.7,15.2-5,17.4-8.3c0.3,9.9,1.2,20.5,3.2,29.8c0.3,1.4,1.5,2.3,2.8,2.4c0.3,0,0.5,0,0.8-0.1   C30.49,99.206,32.49,97.506,32.19,95.906z"/>
	<path style="fill:#2568ef;" d="M89.09,63.606c-6.8-25.1-5.4-60-5.3-60.4c0.1-1.7-1.1-3.1-2.8-3.2c-1.6-0.1-3.1,1.1-3.2,2.8   c0,0.7-0.5,7.9-0.5,18l0,0c0,0,0,0.1,0,0.4v0.1c0,2.6-0.3,15.5-7.5,20c-0.4,0.3-0.6,0.3-0.6,0.3c-2.5-1-4.4-14.6-4-28   c0-1.7-1.2-3-2.9-3.1c-1.7,0-3,1.3-3.1,2.9c-0.2,6.7-0.3,29.1,7,33.3c0.6,0.4,1.5,0.7,2.7,0.8c1.1,0.1,2.5-0.2,4-1.1   c2.2-1.4,4-3.2,5.4-5.3c0.7,8.1,2,16.5,4.1,24.1c0.3,1.3,1.5,2.2,2.8,2.2c0.3,0,0.6,0,0.9-0.1   C87.59,66.906,89.49,65.206,89.09,63.606z"/>
	<g>
		<path style="fill:#2568ef;" d="M47.99,87.906c-1.1-0.1-2.3-0.4-3.4-1c-5.4-2.9-10.4-11.8-11.5-23.3c-1.3-14.1,1.9-35.3,11-38.1    c1.4-0.4,3.6-0.6,6.1,1c5.1,3.4,10,13.4,11.2,26.2c1,10.5,0.2,29.1-9.7,34.3C50.49,87.706,49.29,88.006,47.99,87.906z     M45.99,31.306c-0.1,0-0.2,0-0.2,0c-1.1,0.3-3.2,2.8-4.8,10.1c-1.3,6.3-1.7,14.2-1,21.6c1,10.6,4.5,17.1,7.4,18.6    c0.8,0.4,1.2,0.2,1.4,0.1c4.7-2.5,6.9-13.7,5.5-28.4l0,0c-1.1-11.7-4.6-19.9-7.6-21.8C46.39,31.306,46.19,31.306,45.99,31.306z"/>
	</g>
</g>

</g>
</g>
</g>

              </svg>